<svg width="128" height="128" viewBox="0 0 128 128" fill="none" xmlns="http://www.w3.org/2000/svg">
  <rect width="128" height="128" rx="36" fill="#0F3340"/>
  <rect x="73" y="23" width="9" height="31" fill="#1D8F5A"/>
  <rect x="76.5" y="16" width="2" height="10" fill="#1D8F5A"/>
  <rect x="76.5" y="52" width="2" height="9" fill="#1D8F5A"/>
  <rect x="58" y="37" width="8" height="21" fill="#1D8F5A"/>
  <rect x="61" y="31" width="2" height="8" fill="#1D8F5A"/>
  <rect x="61" y="56" width="2" height="8" fill="#1D8F5A"/>
  <rect x="46" y="51" width="7" height="16" fill="#1D8F5A"/>
  <rect x="48.5" y="46" width="2" height="7" fill="#1D8F5A"/>
  <rect x="48.5" y="65" width="2" height="6" fill="#1D8F5A"/>
  <rect x="37" y="62" width="6" height="11" fill="#1D8F5A"/>
  <rect x="39" y="58" width="2" height="5" fill="#1D8F5A"/>
  <rect x="39" y="71" width="2" height="4" fill="#1D8F5A"/>
  <path d="M36.8669 95V89.5892H47.2746V95H44.1306V111H40.0109V95H36.8669Z" fill="#FAF5EE"/>
</svg>
